<svg width="29.870605" height="26.309326" viewBox="0 0 29.8706 26.3093" fill="none" xmlns="http://www.w3.org/2000/svg" xmlns:xlink="http://www.w3.org/1999/xlink">

	<defs/>
	<path id="Vector" d="M24.3423 1.55859C23.4521 1.1897 22.4985 1 21.5352 1C20.5718 1 19.6177 1.1897 18.728 1.55859C17.8379 1.92725 17.0293 2.46777 16.3486 3.14917L14.9351 4.5625L13.5215 3.14917C12.146 1.77344 10.2803 1.00073 8.33496 1.00073C6.38965 1.00073 4.52393 1.77344 3.14844 3.14917C1.77295 4.52466 1 6.39038 1 8.33569C1 10.2812 1.77295 12.1467 3.14844 13.5225L4.56152 14.9358L14.9351 25.3091L25.3086 14.9358L26.7217 13.5225C27.4028 12.8413 27.9434 12.033 28.3125 11.1428C28.6812 10.2529 28.8706 9.29907 28.8706 8.33569C28.8706 7.37256 28.6812 6.41846 28.3125 5.52856C27.9434 4.63867 27.4028 3.83008 26.7217 3.14917C26.0405 2.46777 25.2319 1.92725 24.3423 1.55859Z" stroke="#FFFFFF" stroke-opacity="1.000000" stroke-width="2.000000" stroke-linejoin="round"/>
</svg>
