<svg width="32.000000" height="32.000000" viewBox="0 0 32 32" fill="none" xmlns="http://www.w3.org/2000/svg" xmlns:xlink="http://www.w3.org/1999/xlink">

	<defs/>
	<circle id="Ellipse 3" cx="16.000000" cy="16.000000" r="15.000000" stroke="#FFFFFF" stroke-opacity="1.000000" stroke-width="2.000000"/>
	<circle id="Ellipse 4" cx="16.000488" cy="13.155762" r="4.688889" stroke="#FFFFFF" stroke-opacity="1.000000" stroke-width="2.000000"/>
	<path id="Ellipse 5" d="M4.52881 25.7153Q5.15576 23.7893 6.31689 22.1467Q7.4668 20.5203 9.0293 19.3281Q10.6152 18.1179 12.4717 17.4736Q14.394 16.8066 16.4375 16.8066Q18.4805 16.8066 20.4028 17.4736Q22.2593 18.1179 23.8452 19.3281Q25.4077 20.5203 26.5576 22.1467Q27.7188 23.7893 28.3462 25.7153L26.4443 26.3347Q25.9111 24.6965 24.9248 23.3013Q23.9512 21.9248 22.6323 20.918Q21.3013 19.9023 19.7471 19.3633Q18.1436 18.8066 16.4375 18.8066Q14.7314 18.8066 13.1274 19.3633Q11.5737 19.9023 10.2427 20.918Q8.92334 21.9248 7.9502 23.3013Q6.96387 24.6965 6.43018 26.3347L4.52881 25.7153Z" fill="#FFFFFF" fill-opacity="1.000000" fill-rule="evenodd"/>
</svg>
