<svg width="32.000000" height="32.000000" viewBox="0 0 32 32" fill="none" xmlns="http://www.w3.org/2000/svg" xmlns:xlink="http://www.w3.org/1999/xlink">

	<defs>
		<clipPath id="clip110_2975">
			<rect id="shopping-cart" width="32.000000" height="32.000000" fill="white" fill-opacity="0"/>
		</clipPath>
	</defs>
	<rect id="shopping-cart" width="32.000000" height="32.000000" fill="#FFFFFF" fill-opacity="0"/>
	<g clip-path="url(#clip110_2975)">
		<path id="Vector" d="M13 31C12.4478 31 12 30.5522 12 30C12 29.4478 12.4478 29 13 29C13.5522 29 14 29.4478 14 30C14 30.5522 13.5522 31 13 31Z" stroke="#FFFFFF" stroke-opacity="1.000000" stroke-width="2.000000" stroke-linejoin="round"/>
		<path id="Vector" d="M25 31C24.4478 31 24 30.5522 24 30C24 29.4478 24.4478 29 25 29C25.5522 29 26 29.4478 26 30C26 30.5522 25.5522 31 25 31Z" stroke="#FFFFFF" stroke-opacity="1.000000" stroke-width="2.000000" stroke-linejoin="round"/>
		<path id="Vector" d="M3 4L7.72705 4L10.8945 20.9602C11.0024 21.5435 11.2988 22.0671 11.731 22.4399C12.1631 22.813 12.7036 23.011 13.2583 22.9995L24.7456 22.9995C25.3003 23.011 25.8408 22.813 26.2729 22.4399C26.7051 22.0671 27.001 21.5435 27.1089 20.9602L29 10.3333L8.90918 10.3333" stroke="#FFFFFF" stroke-opacity="1.000000" stroke-width="2.000000" stroke-linejoin="round" stroke-linecap="round"/>
	</g>
</svg>
