<svg width="18.750000" height="18.000000" viewBox="0 0 18.75 18" fill="none" xmlns="http://www.w3.org/2000/svg" xmlns:xlink="http://www.w3.org/1999/xlink">
	<defs/>
	<path id="instagram" d="M13.2153 0L5.53467 0C4.51807 0 3.84033 0.216797 3.27539 0.433838C2.71094 0.650635 2.146 0.97583 1.58154 1.51807C1.0166 2.0603 0.790527 2.4939 0.45166 3.14453C0.226074 3.68677 0.112793 4.3374 0 5.31323L0 12.6868C0 13.6626 0.226074 14.3132 0.45166 14.8555C0.677734 15.3977 1.0166 15.9397 1.58154 16.4819C2.146 17.0242 2.59766 17.241 3.27539 17.5662C3.84033 17.7832 4.51807 17.8916 5.53467 18L13.2153 18C14.2319 18 14.9097 17.7832 15.4746 17.5662C16.0391 17.3494 16.604 17.0242 17.1685 16.4819C17.7334 15.9397 17.9595 15.5061 18.2983 14.8555C18.5239 14.3132 18.6372 13.6626 18.75 12.6868L18.75 5.31323C18.75 4.3374 18.5239 3.68677 18.2983 3.14453C18.0723 2.60229 17.7334 2.0603 17.1685 1.51807C16.604 0.97583 16.1523 0.759033 15.4746 0.433838C14.9097 0.216797 14.2319 0.108398 13.2153 0ZM5.53467 1.62646L13.2153 1.62646C14.1191 1.62646 14.5708 1.84326 14.9097 1.9519C15.3613 2.1687 15.7002 2.2771 16.0391 2.60229C16.3779 2.92773 16.604 3.25293 16.7168 3.68677C16.8296 4.01196 16.9429 4.4458 17.0557 5.31323L17.0557 12.6868C17.0557 13.5542 16.8296 13.988 16.7168 14.3132C16.4907 14.7471 16.3779 15.0723 16.0391 15.3977C15.7002 15.7229 15.3613 15.9397 14.9097 16.0481C14.5708 16.1567 14.1191 16.2651 13.2153 16.3735L5.53467 16.3735C4.63086 16.3735 4.1792 16.1567 3.84033 16.0481C3.38867 15.8313 3.0498 15.7229 2.71094 15.3977C2.37207 15.0723 2.146 14.7471 2.0332 14.3132C1.92041 13.988 1.80713 13.5542 1.69434 12.6868L1.69434 5.31323C1.69434 4.4458 1.92041 4.01196 2.0332 3.68677C2.25928 3.25293 2.37207 2.92773 2.71094 2.60229C3.0498 2.2771 3.38867 2.0603 3.84033 1.9519C4.1792 1.84326 4.63086 1.73486 5.53467 1.62646ZM15.4746 4.229C15.4746 4.82788 14.9688 5.31323 14.3447 5.31323C13.7212 5.31323 13.2153 4.82788 13.2153 4.229C13.2153 3.63013 13.7212 3.14453 14.3447 3.14453C14.9688 3.14453 15.4746 3.63013 15.4746 4.229ZM9.375 4.3374C6.66406 4.3374 4.51807 6.39771 4.51807 9C4.51807 11.6023 6.66406 13.6626 9.375 13.6626C12.0859 13.6626 14.2319 11.6023 14.2319 9C14.2319 6.39771 12.0859 4.3374 9.375 4.3374ZM9.375 12.0361C7.68066 12.0361 6.2124 10.7349 6.2124 9C6.2124 7.37354 7.56787 5.96387 9.375 5.96387C11.0693 5.96387 12.5376 7.26514 12.5376 9C12.5376 10.6265 11.0693 12.0361 9.375 12.0361Z" fill="#000000" fill-opacity="1.000000" fill-rule="evenodd"/>
</svg>
