<svg width="20.625000" height="12.600098" viewBox="0 0 20.625 12.6001" fill="none" xmlns="http://www.w3.org/2000/svg" xmlns:xlink="http://www.w3.org/1999/xlink">
	<defs/>
	<path id="Vector" d="M11.2334 12.6001C4.18701 12.6001 0.16748 7.87036 0 0L3.52979 0C3.646 5.77661 6.24805 8.22339 8.30908 8.72803L8.30908 0L11.6328 0L11.6328 4.98193C13.6685 4.76758 15.8071 2.49731 16.5283 0L19.8521 0C19.5801 1.29517 19.0381 2.52148 18.2603 3.60229C17.4824 4.68311 16.4849 5.59497 15.3301 6.28101C16.6191 6.90796 17.7573 7.79541 18.6699 8.88452C19.5825 9.97388 20.249 11.2402 20.625 12.6001L16.9663 12.6001C16.6289 11.4189 15.9424 10.3616 14.9937 9.56055C14.0449 8.75952 12.876 8.25049 11.6328 8.09741L11.6328 12.6001L11.2334 12.6001Z" fill="#000000" fill-opacity="1.000000" fill-rule="nonzero"/>
</svg>
